<?xml version="1.0" ?><!DOCTYPE svg  PUBLIC '-//W3C//DTD SVG 1.1//EN'  'http://www.w3.org/Graphics/SVG/1.1/DTD/svg11.dtd'><svg enable-background="new 0 0 128 128" id="Слой_1" version="1.1" viewBox="0 0 128 128" xml:space="preserve" xmlns="http://www.w3.org/2000/svg" xmlns:xlink="http://www.w3.org/1999/xlink"><circle cx="44" cy="54" fill="#EF9F6A" r="1.2"/><circle cx="54" cy="69" fill="#EF9F6A" r="1.2"/><circle cx="34" cy="71" fill="#EF9F6A" r="1.2"/><circle cx="64" cy="79" fill="#FDB915" r="45"/><g opacity="0.1"><path d="M34,79c0-22.3,16.2-40.8,37.5-44.4C69.1,34.2,66.6,34,64,34c-24.9,0-45,20.1-45,45c0,24.9,20.1,45,45,45   c2.6,0,5.1-0.2,7.5-0.6C50.2,119.8,34,101.3,34,79z"/></g><path d="M34,4L19,4v0c0,16.6,13.4,30,30,30l15,0v0C64,17.4,50.6,4,34,4z" fill="#C7DF89"/><path d="M19,4L19,4c0,16.6,13.4,30,30,30l15,0v0C64,17.4,19,4,19,4z" opacity="0.1"/><path d="M44,57.7c2.1,0,3.8-1.7,3.8-3.8s-1.7-3.8-3.8-3.8s-3.8,1.7-3.8,3.8S41.9,57.7,44,57.7z" fill="#62355C"/><path d="M54,72.8c2.1,0,3.8-1.7,3.8-3.8s-1.7-3.8-3.8-3.8s-3.8,1.7-3.8,3.8S51.9,72.8,54,72.8z" fill="#62355C"/><path d="M34,74.8c2.1,0,3.8-1.7,3.8-3.8s-1.7-3.8-3.8-3.8s-3.8,1.7-3.8,3.8S31.9,74.8,34,74.8z" fill="#62355C"/><path d="M16.5,79c0,26.2,21.3,47.5,47.5,47.5s47.5-21.3,47.5-47.5c0-25.3-19.9-46.1-44.9-47.4  c1.2-14,13-25.1,27.4-25.1c1.4,0,2.5-1.1,2.5-2.5S95.4,1.5,94,1.5c-13.5,0-25.1,8.3-30,20c-4.9-11.7-16.5-20-30-20H19  c-1.4,0-2.5,1.1-2.5,2.5c0,16.1,11.8,29.5,27.2,32.1C27.6,43.7,16.5,60.1,16.5,79z M21.6,6.5H34c14.3,0,26.1,11,27.4,25H49  C34.7,31.5,22.9,20.5,21.6,6.5z M64,36.5c23.4,0,42.5,19.1,42.5,42.5S87.4,121.5,64,121.5S21.5,102.4,21.5,79S40.6,36.5,64,36.5z" fill="#62355C"/></svg>